<svg width="80" height="80" viewBox="0 0 80 80" fill="none" xmlns="http://www.w3.org/2000/svg">
<path d="M58.8465 41.9589L58.8138 53.6412C57.0932 50.5378 56.2982 47.3567 56.0587 44.2976L56.0913 32.6152C56.32 35.6744 57.1259 38.8554 58.8465 41.9589Z" fill="url(#paint0_linear_116_243)"/>
<path d="M61.0228 41.8679L60.9901 53.5614L58.8121 53.6389L58.8447 41.9566L61.0228 41.8679Z" fill="#D44D00"/>
<g style="mix-blend-mode:multiply">
<path d="M58.8122 52.9089C57.0915 49.8165 56.2966 46.6465 56.0679 43.5874V44.2968C56.2966 47.3559 57.0915 50.537 58.8122 53.6404V52.9089Z" fill="#C2A188"/>
</g>
<path style="mix-blend-mode:screen" d="M15.5896 48.6511C15.4044 44.8272 21.9711 41.3801 30.2585 40.959C38.5458 40.5378 45.4174 43.2977 45.6026 47.1216C45.7877 50.9455 39.221 54.3926 30.9337 54.8137C22.6463 55.2349 15.7747 52.4861 15.5896 48.6622V48.6511Z" fill="url(#paint1_radial_116_243)"/>
<path d="M14.2289 35.9615L14.1962 47.6439L14.0982 46.5909L14.1418 34.8975L14.2289 35.9615Z" fill="#D44D00"/>
<path d="M57.571 45.771L57.5384 57.4533L55.3821 58.2957L55.4148 46.6023L57.571 45.771Z" fill="#D44D00"/>
<mask id="mask0_116_243" style="mask-type:luminance" maskUnits="userSpaceOnUse" x="58" y="49" width="1" height="17">
<path d="M58.6297 49.9011C58.6188 53.7915 58.6079 57.6931 58.597 61.5835C58.597 62.8692 58.3901 64.1771 58.3792 65.5736C58.3792 61.6832 58.401 57.7817 58.4119 53.8913C58.4119 52.4947 58.6188 51.1868 58.6297 49.9011Z" fill="white"/>
</mask>
<g mask="url(#mask0_116_243)">
<path d="M58.6289 49.9023L58.5962 61.5847C58.5962 61.7066 58.5962 61.8175 58.5962 61.9394L58.6289 50.257C58.6289 50.1351 58.6289 50.0243 58.6289 49.9023Z" fill="#949494"/>
</g>
<g style="mix-blend-mode:overlay">
<path d="M37.7957 34.4307C34.2891 33.5219 30.63 32.7349 27.3303 32.3137C26.6769 32.4135 26.0017 32.5132 25.3157 32.6241L54.3377 59.3693C56.0692 57.474 57.5611 55.5454 58.3996 54.0048C58.3996 53.8052 58.3996 53.6168 58.4105 53.4173L37.7957 34.4196V34.4307Z" fill="url(#paint2_linear_116_243)"/>
</g>
<path d="M38.2974 45.2389C32.4494 41.8029 23.2364 41.6699 17.7152 44.9396C14.8402 46.6355 14.666 48.2537 15.9837 49.9052C13.8928 50.7808 12.782 51.9114 13.4463 52.6429C13.5225 52.7316 13.6205 52.7981 13.7294 52.8646C14.7095 53.4409 17.0618 53.3966 19.4467 52.7537C19.7407 52.9532 20.0457 53.1417 20.3397 53.3523C18.0419 54.7156 17.1271 56.3671 18.3033 57.0653C19.4794 57.7525 22.2999 57.2205 24.6195 55.8461C24.9571 56.0346 25.2838 56.2119 25.6105 56.3892C24.5215 57.7969 24.467 59.1824 25.4471 59.7587C25.556 59.8252 25.6867 59.8806 25.8283 59.925C27.0697 60.3129 28.9864 59.659 30.4565 58.4176C33.2553 59.1934 35.9996 59.0826 38.8746 57.3868C44.3958 54.117 44.1345 48.686 38.2865 45.25L38.2974 45.2389ZM26.057 53.5961C25.5342 53.9065 25.0986 53.6626 24.565 53.3523C24.0423 53.0419 23.6285 52.787 24.1512 52.4766C24.6739 52.1663 25.9372 51.9225 26.4599 52.2328C26.9826 52.5431 26.5688 53.2858 26.057 53.5961ZM25.5342 50.8473C24.5868 51.0357 23.6285 50.7697 22.583 50.149C22.3435 50.005 22.1039 49.8498 21.8643 49.6835C20.5248 48.7303 20.5684 47.4446 22.1257 46.5246C23.574 45.6712 26.0243 45.4827 27.3638 46.2808C27.4509 46.3362 27.538 46.3916 27.6142 46.447C29.4547 47.8658 27.1133 50.537 25.5451 50.8473H25.5342ZM36.152 54.771C34.6057 55.691 32.4059 55.7242 30.7941 54.9373C30.5001 54.7932 30.2279 54.6491 29.9992 54.5161C28.9537 53.8954 28.5072 53.3301 28.823 52.7759C29.3458 51.8449 33.8542 50.4594 36.2718 51.5345C36.3807 51.5789 36.4679 51.6343 36.5659 51.6786C37.9053 52.4656 37.6113 53.9065 36.1629 54.771H36.152Z" fill="url(#paint3_linear_116_243)"/>
<path d="M38.8818 57.1097C36.0068 58.8055 33.2625 58.9163 30.4638 58.1405C28.9827 59.3819 27.0769 60.0358 25.8355 59.6479C25.6939 59.6035 25.5632 59.5481 25.4543 59.4816C24.4742 58.9053 24.5396 57.5198 25.6177 56.1121C25.291 55.9348 24.9643 55.7575 24.6267 55.569C22.3071 56.9434 19.4866 57.4865 18.3105 56.7882C17.1343 56.101 18.0382 54.4385 20.3469 53.0752C20.0529 52.8646 19.7479 52.6761 19.4539 52.4766C17.0581 53.1195 14.7167 53.1638 13.7366 52.5875C13.6277 52.521 13.5297 52.4434 13.4535 52.3658C12.7892 51.6343 13.9 50.5037 15.9909 49.6281C14.6732 47.9766 14.8474 46.3695 17.7224 44.6625C23.2436 41.3928 32.4566 41.5258 38.3046 44.9618C44.1526 48.3978 44.4139 53.8289 38.8927 57.0986L38.8818 57.1097ZM30.8013 54.6712C32.4131 55.4582 34.6129 55.4249 36.1593 54.505C37.6076 53.6515 37.9125 52.2106 36.5622 51.4126C36.4751 51.3572 36.3771 51.3128 36.2681 51.2685C33.8506 50.1823 29.3312 51.5789 28.8194 52.5099C28.5035 53.0641 28.95 53.6294 29.9955 54.2501C30.2351 54.3831 30.4964 54.5271 30.7905 54.6712M25.5306 50.5813C27.0987 50.271 29.4401 47.5998 27.5997 46.181C27.5234 46.1145 27.4363 46.0591 27.3492 46.0148C25.9988 45.2278 23.5595 45.4052 22.1111 46.2586C20.5647 47.1786 20.5102 48.4754 21.8497 49.4175C22.0893 49.5948 22.3398 49.75 22.5685 49.883C23.6139 50.5037 24.5831 50.7586 25.5197 50.5813M24.5505 53.0862C25.0732 53.3966 25.5088 53.6404 26.0424 53.3301C26.5651 53.0197 26.9789 52.2771 26.4453 51.9668C25.9226 51.6564 24.6594 51.9003 24.1366 52.2106C23.6139 52.521 24.0277 52.7759 24.5505 53.0862Z" fill="url(#paint4_linear_116_243)"/>
<path style="mix-blend-mode:overlay" d="M32.0537 58.4728L26.2929 53.1636C26.2166 53.2301 26.1404 53.2966 26.0642 53.3409C25.5414 53.6513 25.1058 53.4074 24.5722 53.0971C24.0495 52.7868 23.6357 52.5318 24.1584 52.2215C24.3544 52.1106 24.6376 51.9998 24.9534 51.9333L22.9496 50.0934C22.8298 50.0269 22.6991 49.9825 22.5794 49.905C22.3398 49.772 22.1002 49.6057 21.8606 49.4394C21.3488 49.0737 21.0439 48.6636 20.9458 48.2424L17.3412 44.9172C14.8365 46.5355 14.7276 48.0761 15.9909 49.6389C13.9 50.5146 12.7892 51.6451 13.4535 52.3766C13.5297 52.4653 13.6277 52.5318 13.7366 52.5983C14.7167 53.1747 17.069 53.1304 19.4539 52.4875C19.7479 52.687 20.0529 52.8754 20.3469 53.086C18.0491 54.4493 17.1343 56.1008 18.3105 56.7991C19.4866 57.4863 22.3071 56.9543 24.6267 55.5799C24.9643 55.7683 25.291 55.9456 25.6177 56.123C24.5287 57.5417 24.4742 58.9161 25.4543 59.4925C25.5632 59.559 25.6939 59.6144 25.8355 59.6587C27.0769 60.0467 28.9936 59.3927 30.4638 58.1513C30.9974 58.2954 31.5201 58.4062 32.0537 58.4838V58.4728Z" fill="url(#paint5_linear_116_243)"/>
<path style="mix-blend-mode:screen" d="M13.2944 34.3548C13.1093 30.5308 19.676 27.0838 27.9633 26.6626C36.2506 26.2414 43.1223 29.0013 43.3074 32.8252C43.4925 36.6491 36.9258 40.0962 28.6385 40.5174C20.3512 40.9385 13.4795 38.1898 13.2944 34.3658V34.3548Z" fill="url(#paint6_radial_116_243)"/>
<path d="M26.2212 18.082L26.1885 29.7644L26.1014 28.7114L26.134 17.0291L26.2212 18.082Z" fill="#D44D00"/>
<path d="M69.5598 27.8916L69.5271 39.585L67.3709 40.4163L67.4036 28.734L69.5598 27.8916Z" fill="#D44D00"/>
<mask id="mask1_116_243" style="mask-type:luminance" maskUnits="userSpaceOnUse" x="70" y="32" width="1" height="16">
<path d="M70.6088 32.0359C70.5979 35.9263 70.587 39.8278 70.5761 43.7182C70.5761 45.004 70.3692 46.3008 70.3583 47.7084C70.3583 43.818 70.3801 39.9165 70.3909 36.0261C70.3909 34.6295 70.5979 33.3216 70.6088 32.0359Z" fill="white"/>
</mask>
<g mask="url(#mask1_116_243)">
<path d="M70.6109 32.0352L70.5782 43.7175C70.5782 43.8394 70.5782 43.9503 70.5782 44.0722L70.6109 32.3898C70.6109 32.2679 70.6109 32.1571 70.6109 32.0352Z" fill="#949494"/>
<path d="M70.6105 32.3809L70.5778 44.0632C70.5452 45.1051 70.4036 46.1691 70.3709 47.2886L70.4036 35.6063C70.4362 34.4868 70.5778 33.4227 70.6105 32.3809Z" fill="#D44D00"/>
<path d="M70.4036 35.6038L70.3709 47.2861C70.3709 47.4191 70.3709 47.5632 70.3709 47.6962L70.4036 36.0139C70.4036 35.8698 70.4036 35.7368 70.4036 35.6038Z" fill="#949494"/>
</g>
<path d="M12.1829 39.985L12.1502 51.6674C10.4296 48.5639 9.6346 45.3828 9.39502 42.3237L9.42769 30.6414C9.65638 33.7005 10.4622 36.8815 12.1829 39.985Z" fill="url(#paint7_linear_116_243)"/>
<path d="M14.3483 39.9072L14.3156 51.5896L12.1485 51.6782L12.1812 39.9848L14.3483 39.9072Z" fill="#D44D00"/>
<path d="M70.3873 36.1394L70.3547 47.8218C68.8519 50.5705 65.2364 54.6161 61.9258 57.4203L61.9585 45.738C65.269 42.9338 68.8736 38.8882 70.3873 36.1394Z" fill="url(#paint8_linear_116_243)"/>
<path d="M19.0439 46.5691L19.0112 58.2515C16.757 56.6111 14.5681 54.5495 13.1415 52.9201L13.1741 41.2378C14.6007 42.8671 16.7896 44.9287 19.0439 46.5691Z" fill="url(#paint9_linear_116_243)"/>
<path d="M49.4891 50.1929L49.4565 61.8752L47.4527 60.4454L47.4854 48.752L49.4891 50.1929Z" fill="#D44D00"/>
<path d="M61.9586 45.7378L61.926 57.4201C57.7115 59.2933 54.3029 60.6344 49.4568 61.8758L49.4895 50.1935C54.3356 48.9521 57.7442 47.611 61.9586 45.7378Z" fill="url(#paint10_linear_116_243)"/>
<path d="M31.8407 50.4912L31.808 62.1735C28.2578 61.1649 23.2593 60.0232 19.0013 58.2387L19.034 46.5564C23.292 48.3298 28.2796 49.4714 31.8298 50.4912H31.8407Z" fill="url(#paint11_linear_116_243)"/>
<path d="M47.4887 48.752L47.456 60.4454L47.2709 62.2299L47.2927 50.5475L47.4887 48.752Z" fill="#B34100"/>
<path d="M47.2904 50.5464L47.2577 62.2287C42.2265 62.9159 37.6309 62.5169 31.8047 62.1733L31.8374 50.491C37.6745 50.8346 42.2592 51.2336 47.2904 50.5464Z" fill="url(#paint12_linear_116_243)"/>
<path d="M61.9613 46.2134C57.7468 48.0866 54.3382 49.4277 49.4922 50.6691L47.4884 49.2282L47.2924 51.0238C42.2612 51.711 37.6765 51.312 31.8394 50.9684C28.2892 49.9597 23.2907 48.8181 19.0436 47.0447C16.7893 45.4043 14.6004 43.3316 13.1739 41.7134L14.35 40.3833L12.1829 40.4609C10.4622 37.3574 9.66725 34.1875 9.42767 31.1172C11.2028 27.4928 14.8509 23.9903 18.6298 20.7428C20.59 19.5901 22.7462 18.6258 25.0331 17.8499L26.2201 18.5482L26.133 17.4952C30.2059 16.4533 35.2044 15.5112 39.3209 14.9016C47.0419 15.8992 56.7123 18.8585 61.8197 20.7428C64.9125 22.8598 67.5479 25.5532 69.5625 28.3685L67.4063 29.1997L70.2268 29.9534C70.9782 32.148 70.3793 34.2429 70.3902 36.6148C68.8765 39.3636 65.2718 43.4092 61.9613 46.2134Z" fill="url(#paint13_linear_116_243)"/>
<path d="M61.9613 45.7368C57.7468 47.61 54.3382 48.9512 49.4922 50.1925L47.4884 48.7516L47.2924 50.5472C42.2612 51.2344 37.6765 50.8354 31.8394 50.4918C28.2892 49.4832 23.2907 48.3415 19.0436 46.557C16.7893 44.9166 14.6004 42.8551 13.1739 41.2257L14.35 39.8957L12.1829 39.9843C10.4622 36.8809 9.66725 33.6998 9.42767 30.6407C11.2028 27.0163 14.8509 23.5138 18.6298 20.2662C20.59 19.1135 22.7462 18.1492 25.0331 17.3733L26.2201 18.0716L26.133 17.0187C30.2059 15.9768 35.2044 15.0347 39.3209 14.425C47.0419 15.4226 56.7123 18.382 61.8197 20.2662C64.9125 22.3832 67.5479 25.0766 69.5625 27.8919L67.4063 28.7232L70.2268 29.4769C70.9782 31.6715 70.3793 33.7663 70.3902 36.1383C68.8765 38.887 65.2718 42.9326 61.9613 45.7368Z" fill="url(#paint14_linear_116_243)"/>
<g style="mix-blend-mode:overlay">
<path d="M49.7945 16.5526C46.2879 15.6437 42.6289 14.8567 39.3292 14.4355C38.6758 14.5353 38.0006 14.6351 37.3145 14.7459L66.3365 41.4912C68.068 39.5958 69.56 37.6672 70.3985 36.1266C70.3985 35.9271 70.3985 35.7387 70.4094 35.5391L49.7945 16.5526Z" fill="url(#paint15_linear_116_243)"/>
<path d="M20.7616 19.135C20.032 19.4897 19.3133 19.8665 18.6272 20.2656C15.3928 23.0476 12.2565 26.0181 10.3072 29.0994L33.6337 50.5909C38.6322 50.9012 42.7922 51.1451 47.3007 50.5355L47.4967 48.7399L49.5005 50.1808C50.8617 49.8261 52.1032 49.4714 53.2902 49.0946L20.7616 19.135Z" fill="url(#paint16_linear_116_243)"/>
</g>
<path d="M56.439 23.4579C65.4125 28.7227 65.4451 37.2794 56.5371 42.5442C47.629 47.8091 33.1343 47.8201 24.1609 42.5442C15.1875 37.2794 15.144 28.7338 24.052 23.4579C32.9601 18.1931 47.4548 18.182 56.4282 23.4579H56.439Z" fill="#F17500"/>
<path d="M24.0622 25.4654C32.9702 20.2006 47.4649 20.1895 56.4383 25.4654C60.5112 27.8595 62.7327 30.9298 63.1248 34.0554C63.6039 30.2647 61.3715 26.3743 56.4383 23.4703C47.4649 18.2055 32.9702 18.2055 24.0622 23.4703C19.1943 26.3521 17.0054 30.1982 17.4737 33.9667C17.8657 30.8632 20.0546 27.8374 24.0622 25.4654Z" fill="#D44D00"/>
<path d="M50.2864 27.306C44.4384 23.8701 35.2255 23.7371 29.7042 27.0068C27.8965 28.0708 27.1559 29.1127 27.1886 30.1324C27.1886 30.343 27.1886 31.1965 27.1886 31.4071C27.1886 31.6952 27.2322 31.9723 27.3411 32.2605C25.9471 32.9477 25.1413 33.7347 25.2502 34.3554C25.2502 34.7876 25.2175 35.4194 25.2502 35.6854C25.2611 35.8184 25.3264 35.9514 25.4353 36.0623C25.5115 36.1509 25.6095 36.2174 25.7184 36.2839C26.655 36.8381 28.8439 36.816 31.1308 36.2507C30.1943 37.0266 29.7151 37.8246 29.8022 38.4231C29.824 38.5894 29.7804 39.4539 29.7913 39.6978C29.8022 40.0192 29.9765 40.2852 30.3032 40.4847C31.4793 41.1719 34.2998 40.6399 36.6194 39.2655C36.7501 39.332 36.8699 39.3985 37.0005 39.465C36.8045 39.9194 36.7283 40.3517 36.7719 40.7175C36.7936 40.8726 36.7392 41.848 36.7719 42.1473C36.8263 42.5906 37.055 42.9453 37.4361 43.1781C37.545 43.2446 37.6757 43.3 37.8173 43.3443C39.0588 43.7323 40.9754 43.0783 42.4456 41.8369C45.2443 42.6128 47.9886 42.502 50.8636 40.8061C53.499 39.2433 54.8058 37.1928 54.8276 35.1091C54.8276 34.8763 54.8384 33.8455 54.8276 33.5684C54.7731 31.3295 53.2594 29.0573 50.2755 27.306H50.2864ZM48.1411 36.8492C46.5947 37.7692 44.3949 37.8024 42.7832 37.0155C42.4891 36.8714 42.2169 36.7273 41.9882 36.5943C41.607 36.3726 41.3021 36.1509 41.0843 35.9293C42.2169 35.0315 46.0828 34.0118 48.2609 34.9871C48.3698 35.0315 48.4569 35.0869 48.5549 35.1312C48.8707 35.3196 49.0885 35.5413 49.2301 35.7741C49.0232 36.1731 48.6638 36.55 48.152 36.8492H48.1411ZM37.5233 32.9255C36.5758 33.114 35.6175 32.848 34.5721 32.2273C34.3325 32.0832 34.0929 31.928 33.8533 31.7617C33.5048 31.5068 33.2544 31.2408 33.091 30.9526C33.287 30.5979 33.6137 30.2654 34.1147 29.9662C35.5631 29.1127 38.0133 28.9243 39.3528 29.7223C39.4399 29.7777 39.527 29.8332 39.6033 29.8886C39.8537 30.0881 40.028 30.3098 40.1369 30.5425C39.7231 31.662 38.4925 32.726 37.5342 32.9145L37.5233 32.9255ZM38.046 35.6743C37.6431 35.9071 37.3055 35.8295 36.9243 35.6411C37.349 35.5413 37.8282 35.5081 38.1767 35.5857C38.1331 35.6189 38.0895 35.6522 38.046 35.6743Z" fill="#D44D00"/>
<path d="M50.2861 27.3595C44.4381 23.9235 35.2252 23.7905 29.7039 27.0603C26.8289 28.7561 26.6547 30.3743 27.9724 32.0258C25.8815 32.9014 24.7707 34.032 25.435 34.7635C25.5112 34.8522 25.6092 34.9187 25.7181 34.9852C26.6982 35.5615 29.0505 35.5172 31.4354 34.8743C31.7294 35.0739 32.0344 35.2623 32.3284 35.4729C30.0306 36.8362 29.1158 38.4877 30.292 39.186C31.4681 39.8731 34.2886 39.3411 36.6082 37.9667C36.9458 38.1552 37.2725 38.3325 37.5992 38.5098C36.5102 39.9175 36.4557 41.303 37.4358 41.8793C37.5447 41.9458 37.6754 42.0012 37.817 42.0456C39.0585 42.4335 40.9751 41.7796 42.4453 40.5382C45.244 41.314 47.9883 41.2032 50.8633 39.5074C56.3845 36.2377 56.1232 30.8066 50.2752 27.3706L50.2861 27.3595ZM38.0457 35.7167C37.523 36.0271 37.0874 35.7832 36.5537 35.4729C36.031 35.1625 35.6172 34.9076 36.1399 34.5972C36.6626 34.2869 37.9259 34.0431 38.4486 34.3534C38.9713 34.6638 38.5575 35.4064 38.0457 35.7167ZM37.523 32.9679C36.5755 33.1564 35.6172 32.8903 34.5718 32.2696C34.3322 32.1256 34.0926 31.9704 33.853 31.8041C32.5135 30.8509 32.5571 29.5652 34.1144 28.6452C35.5627 27.7918 38.013 27.6034 39.3525 28.4014C39.4396 28.4568 39.5267 28.5122 39.603 28.5676C41.4434 29.9864 39.102 32.6576 37.5338 32.9679H37.523ZM48.1408 36.8916C46.5944 37.8116 44.3946 37.8448 42.7828 37.0579C42.4888 36.9138 42.2166 36.7697 41.9879 36.6367C40.9424 36.016 40.4959 35.4507 40.8117 34.8965C41.3345 33.9655 45.843 32.58 48.2605 33.6551C48.3694 33.6995 48.4566 33.7549 48.5546 33.7992C49.8941 34.5862 49.6 36.0271 48.1516 36.8916H48.1408Z" fill="url(#paint17_linear_116_243)"/>
<path d="M50.8741 39.232C47.9992 40.9278 45.2549 41.0387 42.4561 40.2628C40.9751 41.5042 39.0693 42.1581 37.8279 41.7702C37.6863 41.7259 37.5556 41.6704 37.4467 41.6039C36.4666 41.0276 36.5319 39.6421 37.61 38.2344C37.2833 38.0571 36.9566 37.8798 36.6191 37.6913C34.2995 39.0657 31.4789 39.6088 30.3028 38.9106C29.1267 38.2234 30.0306 36.5608 32.3393 35.1975C32.0452 34.9869 31.7403 34.7985 31.4463 34.599C29.0505 35.2418 26.7091 35.2862 25.729 34.7098C25.6201 34.6433 25.5221 34.5657 25.4459 34.4881C24.7816 33.7566 25.8924 32.626 27.9832 31.7504C26.6655 30.0989 26.8398 28.4918 29.7148 26.7849C35.236 23.5151 44.449 23.6481 50.297 27.0841C56.1449 30.5201 56.4063 35.9512 50.885 39.2209L50.8741 39.232ZM42.7937 36.7935C44.4054 37.5805 46.6052 37.5473 48.1516 36.6273C49.6 35.7738 49.9049 34.3329 48.5546 33.5349C48.4674 33.4795 48.3694 33.4352 48.2605 33.3908C45.8429 32.3046 41.3236 33.7012 40.8117 34.6322C40.4959 35.1864 40.9424 35.7517 41.9878 36.3724C42.2274 36.5054 42.4888 36.6495 42.7828 36.7935M37.5229 32.7036C39.0911 32.3933 41.4325 29.7221 39.592 28.3033C39.5158 28.2368 39.4287 28.1814 39.3416 28.1371C37.9912 27.3501 35.5518 27.5275 34.1035 28.3809C32.5571 29.3009 32.5026 30.5977 33.8421 31.5398C34.0817 31.7172 34.3321 31.8723 34.5608 32.0053C35.6063 32.626 36.5755 32.881 37.512 32.7036M36.5428 35.2086C37.0655 35.5189 37.5012 35.7628 38.0348 35.4524C38.5575 35.1421 38.9713 34.3994 38.4377 34.0891C37.915 33.7788 36.6517 34.0226 36.129 34.3329C35.6063 34.6433 36.0201 34.8982 36.5428 35.2086Z" fill="url(#paint18_linear_116_243)"/>
<path style="mix-blend-mode:overlay" d="M44.0461 40.5953L38.2852 35.2862C38.209 35.3527 38.1328 35.4192 38.0565 35.4635C37.5338 35.7738 37.0982 35.53 36.5646 35.2197C36.0419 34.9093 35.6281 34.6544 36.1508 34.344C36.3468 34.2332 36.6299 34.1224 36.9458 34.0559L34.942 32.2159C34.8222 32.1494 34.6915 32.1051 34.5717 32.0275C34.3321 31.8945 34.0926 31.7283 33.853 31.562C33.3412 31.1962 33.0362 30.7861 32.9382 30.3649L29.3336 27.0398C26.8289 28.658 26.72 30.1987 27.9832 31.7615C25.8924 32.6371 24.7816 33.7677 25.4459 34.4992C25.5221 34.5879 25.6201 34.6544 25.729 34.7209C26.7091 35.2972 29.0614 35.2529 31.4463 34.61C31.7403 34.8096 32.0452 34.998 32.3393 35.2086C30.0415 36.5719 29.1267 38.2234 30.3028 38.9217C31.4789 39.6088 34.2995 39.0768 36.6191 37.7024C36.9566 37.8909 37.2833 38.0682 37.61 38.2455C36.521 39.6643 36.4666 41.0387 37.4467 41.615C37.5556 41.6815 37.6863 41.7369 37.8278 41.7813C39.0693 42.1692 40.986 41.5153 42.4561 40.2739C42.9897 40.418 43.5125 40.5288 44.0461 40.6064V40.5953Z" fill="url(#paint19_linear_116_243)"/>
<g style="mix-blend-mode:multiply">
<path d="M12.1482 50.9458C10.4276 47.8534 9.63262 44.6834 9.40393 41.6243V42.3336C9.63262 45.3928 10.4276 48.5738 12.1482 51.6773V50.9458Z" fill="#C2A188"/>
<path d="M70.3565 47.0886C68.8537 49.8374 65.2382 53.883 61.9276 56.6872C57.7132 58.5604 54.3046 59.8904 49.4585 61.1429V61.8744C54.3046 60.6331 57.7132 59.2919 61.9276 57.4187C65.2382 54.6145 68.8428 50.5689 70.3565 47.8202V47.0886Z" fill="#C2A188"/>
<path d="M47.269 61.498C42.2378 62.1852 37.6422 61.7862 31.816 61.4426C28.2658 60.434 23.2673 59.2923 19.0093 57.5078C16.7659 55.8674 14.5662 53.8058 13.1505 52.1765V52.908C14.577 54.5374 16.7659 56.599 19.0093 58.2394C23.2673 60.0128 28.255 61.1544 31.816 62.1741C37.6531 62.5177 42.2378 62.9167 47.269 62.2295V61.498Z" fill="#C2A188"/>
</g>
<path style="mix-blend-mode:screen" d="M28.6232 49.1503C28.5252 47.0665 35.1572 45.0271 43.4446 44.6059C51.7319 44.1847 58.5382 45.537 58.6362 47.6207C58.7342 49.7045 52.1022 51.7439 43.8148 52.1651C35.5275 52.5863 28.7212 51.234 28.6232 49.1503Z" fill="url(#paint20_radial_116_243)"/>
<path style="mix-blend-mode:screen" d="M25.2942 22.2759C25.109 18.452 31.6757 15.0049 39.9631 14.5837C48.2504 14.1625 55.122 16.9224 55.3071 20.7463C55.4923 24.5702 48.9256 28.0173 40.6382 28.4385C32.3509 28.8597 25.4793 26.1109 25.2942 22.287V22.2759Z" fill="url(#paint21_radial_116_243)"/>
<defs>
<linearGradient id="paint0_linear_116_243" x1="57.7902" y1="43.3333" x2="47.9304" y2="37.4798" gradientUnits="userSpaceOnUse">
<stop stop-color="#F17500"/>
<stop offset="0.53" stop-color="#DF5D00"/>
<stop offset="1" stop-color="#D44D00"/>
</linearGradient>
<radialGradient id="paint1_radial_116_243" cx="0" cy="0" r="1" gradientUnits="userSpaceOnUse" gradientTransform="translate(30.5654 44.2513) rotate(177.079) scale(15.0202 6.87875)">
<stop stop-color="#FDF2A4"/>
<stop offset="0.01" stop-color="#FAE97E"/>
<stop offset="0.02" stop-color="#F7E25C"/>
<stop offset="0.03" stop-color="#F5DB3F"/>
<stop offset="0.04" stop-color="#F3D627"/>
<stop offset="0.05" stop-color="#F2D215"/>
<stop offset="0.06" stop-color="#F1CF09"/>
<stop offset="0.08" stop-color="#F1CD02"/>
<stop offset="0.11" stop-color="#F1CD00"/>
<stop offset="0.17" stop-color="#CCAE00"/>
<stop offset="0.25" stop-color="#9D8500"/>
<stop offset="0.33" stop-color="#736100"/>
<stop offset="0.42" stop-color="#4F4300"/>
<stop offset="0.51" stop-color="#322A00"/>
<stop offset="0.61" stop-color="#1C1700"/>
<stop offset="0.71" stop-color="#0C0A00"/>
<stop offset="0.83" stop-color="#020200"/>
<stop offset="1"/>
</radialGradient>
<linearGradient id="paint2_linear_116_243" x1="27.1452" y1="52.5749" x2="49.2794" y2="41.4966" gradientUnits="userSpaceOnUse">
<stop stop-color="#FFFDEE"/>
<stop offset="0.11" stop-color="#FFFDEE" stop-opacity="0.87"/>
<stop offset="0.44" stop-color="#FFFDEE" stop-opacity="0.5"/>
<stop offset="0.71" stop-color="#FFFDEE" stop-opacity="0.23"/>
<stop offset="0.9" stop-color="#FFFDEE" stop-opacity="0.06"/>
<stop offset="1" stop-color="#FFFDEE" stop-opacity="0"/>
</linearGradient>
<linearGradient id="paint3_linear_116_243" x1="10.5278" y1="46.9902" x2="47.2843" y2="55.5658" gradientUnits="userSpaceOnUse">
<stop stop-color="#F6FE05" stop-opacity="0"/>
<stop offset="0.06" stop-color="#F6FE05" stop-opacity="0.12"/>
<stop offset="0.23" stop-color="#F6FE05" stop-opacity="0.49"/>
<stop offset="0.37" stop-color="#F6FE05" stop-opacity="0.77"/>
<stop offset="0.47" stop-color="#F6FE05" stop-opacity="0.94"/>
<stop offset="0.53" stop-color="#F6FE05"/>
<stop offset="0.58" stop-color="#F6FE05" stop-opacity="0.88"/>
<stop offset="0.73" stop-color="#F6FE05" stop-opacity="0.51"/>
<stop offset="0.86" stop-color="#F6FE05" stop-opacity="0.23"/>
<stop offset="0.95" stop-color="#F6FE05" stop-opacity="0.06"/>
<stop offset="1" stop-color="#F6FE05" stop-opacity="0"/>
</linearGradient>
<linearGradient id="paint4_linear_116_243" x1="14.0742" y1="36.4938" x2="48.954" y2="70.3936" gradientUnits="userSpaceOnUse">
<stop stop-color="#FFBB05"/>
<stop offset="0.37" stop-color="#FFAF05"/>
<stop offset="1" stop-color="#FF9F05"/>
</linearGradient>
<linearGradient id="paint5_linear_116_243" x1="10.0667" y1="42.6451" x2="38.786" y2="70.5575" gradientUnits="userSpaceOnUse">
<stop stop-color="#FFFDEE"/>
<stop offset="0.11" stop-color="#FFFDEE" stop-opacity="0.87"/>
<stop offset="0.44" stop-color="#FFFDEE" stop-opacity="0.5"/>
<stop offset="0.71" stop-color="#FFFDEE" stop-opacity="0.23"/>
<stop offset="0.9" stop-color="#FFFDEE" stop-opacity="0.06"/>
<stop offset="1" stop-color="#FFFDEE" stop-opacity="0"/>
</linearGradient>
<radialGradient id="paint6_radial_116_243" cx="0" cy="0" r="1" gradientUnits="userSpaceOnUse" gradientTransform="translate(28.2857 30.0607) rotate(177.079) scale(15.0202 6.87875)">
<stop stop-color="#FDF2A4"/>
<stop offset="0.01" stop-color="#FAE97E"/>
<stop offset="0.02" stop-color="#F7E25C"/>
<stop offset="0.03" stop-color="#F5DB3F"/>
<stop offset="0.04" stop-color="#F3D627"/>
<stop offset="0.05" stop-color="#F2D215"/>
<stop offset="0.06" stop-color="#F1CF09"/>
<stop offset="0.08" stop-color="#F1CD02"/>
<stop offset="0.11" stop-color="#F1CD00"/>
<stop offset="0.17" stop-color="#CCAE00"/>
<stop offset="0.25" stop-color="#9D8500"/>
<stop offset="0.33" stop-color="#736100"/>
<stop offset="0.42" stop-color="#4F4300"/>
<stop offset="0.51" stop-color="#322A00"/>
<stop offset="0.61" stop-color="#1C1700"/>
<stop offset="0.71" stop-color="#0C0A00"/>
<stop offset="0.83" stop-color="#020200"/>
<stop offset="1"/>
</radialGradient>
<linearGradient id="paint7_linear_116_243" x1="11.1156" y1="41.3594" x2="1.26697" y2="35.5168" gradientUnits="userSpaceOnUse">
<stop stop-color="#F17500"/>
<stop offset="0.53" stop-color="#DF5D00"/>
<stop offset="1" stop-color="#D44D00"/>
</linearGradient>
<linearGradient id="paint8_linear_116_243" x1="62.4812" y1="51.1691" x2="71.8043" y2="41.1801" gradientUnits="userSpaceOnUse">
<stop stop-color="#F17500"/>
<stop offset="0.53" stop-color="#DF5D00"/>
<stop offset="1" stop-color="#D44D00"/>
</linearGradient>
<linearGradient id="paint9_linear_116_243" x1="12.1505" y1="47.5445" x2="18.8797" y2="51.1577" gradientUnits="userSpaceOnUse">
<stop stop-color="#F17500"/>
<stop offset="0.53" stop-color="#DF5D00"/>
<stop offset="1" stop-color="#D44D00"/>
</linearGradient>
<linearGradient id="paint10_linear_116_243" x1="52.016" y1="56.5889" x2="62.1701" y2="49.212" gradientUnits="userSpaceOnUse">
<stop stop-color="#F17500"/>
<stop offset="0.53" stop-color="#DF5D00"/>
<stop offset="1" stop-color="#D44D00"/>
</linearGradient>
<linearGradient id="paint11_linear_116_243" x1="19.6438" y1="53.6722" x2="35.126" y2="55.4706" gradientUnits="userSpaceOnUse">
<stop stop-color="#F17500"/>
<stop offset="0.53" stop-color="#DF5D00"/>
<stop offset="1" stop-color="#D44D00"/>
</linearGradient>
<linearGradient id="paint12_linear_116_243" x1="33.0789" y1="57.6844" x2="51.9986" y2="53.9451" gradientUnits="userSpaceOnUse">
<stop stop-color="#F17500"/>
<stop offset="0.53" stop-color="#DF5D00"/>
<stop offset="1" stop-color="#D44D00"/>
</linearGradient>
<linearGradient id="paint13_linear_116_243" x1="10.3207" y1="33.8439" x2="77.0342" y2="32.3887" gradientUnits="userSpaceOnUse">
<stop stop-color="#F6FE05" stop-opacity="0.03"/>
<stop offset="0.02" stop-color="#F6FE05" stop-opacity="0.21"/>
<stop offset="0.05" stop-color="#F6FE05" stop-opacity="0.38"/>
<stop offset="0.07" stop-color="#F6FE05" stop-opacity="0.53"/>
<stop offset="0.1" stop-color="#F6FE05" stop-opacity="0.66"/>
<stop offset="0.13" stop-color="#F6FE05" stop-opacity="0.77"/>
<stop offset="0.17" stop-color="#F6FE05" stop-opacity="0.85"/>
<stop offset="0.21" stop-color="#F6FE05" stop-opacity="0.92"/>
<stop offset="0.26" stop-color="#F6FE05" stop-opacity="0.97"/>
<stop offset="0.33" stop-color="#F6FE05" stop-opacity="0.99"/>
<stop offset="0.53" stop-color="#F6FE05"/>
<stop offset="0.62" stop-color="#F6FE05" stop-opacity="0.99"/>
<stop offset="0.69" stop-color="#F6FE05" stop-opacity="0.95"/>
<stop offset="0.74" stop-color="#F6FE05" stop-opacity="0.9"/>
<stop offset="0.79" stop-color="#F6FE05" stop-opacity="0.81"/>
<stop offset="0.84" stop-color="#F6FE05" stop-opacity="0.7"/>
<stop offset="0.88" stop-color="#F6FE05" stop-opacity="0.57"/>
<stop offset="0.92" stop-color="#F6FE05" stop-opacity="0.41"/>
<stop offset="0.96" stop-color="#F6FE05" stop-opacity="0.23"/>
<stop offset="1" stop-color="#F6FE05" stop-opacity="0"/>
</linearGradient>
<linearGradient id="paint14_linear_116_243" x1="25.9261" y1="18.7588" x2="60.8061" y2="52.6698" gradientUnits="userSpaceOnUse">
<stop stop-color="#FFBB05"/>
<stop offset="0.37" stop-color="#FFAF05"/>
<stop offset="1" stop-color="#FF9F05"/>
</linearGradient>
<linearGradient id="paint15_linear_116_243" x1="39.144" y1="34.6968" x2="61.2782" y2="23.6184" gradientUnits="userSpaceOnUse">
<stop stop-color="#FFFDEE"/>
<stop offset="0.11" stop-color="#FFFDEE" stop-opacity="0.87"/>
<stop offset="0.44" stop-color="#FFFDEE" stop-opacity="0.5"/>
<stop offset="0.71" stop-color="#FFFDEE" stop-opacity="0.23"/>
<stop offset="0.9" stop-color="#FFFDEE" stop-opacity="0.06"/>
<stop offset="1" stop-color="#FFFDEE" stop-opacity="0"/>
</linearGradient>
<linearGradient id="paint16_linear_116_243" x1="8.40143" y1="48.9505" x2="40.5606" y2="32.8611" gradientUnits="userSpaceOnUse">
<stop stop-color="#FFFDEE"/>
<stop offset="0.11" stop-color="#FFFDEE" stop-opacity="0.87"/>
<stop offset="0.44" stop-color="#FFFDEE" stop-opacity="0.5"/>
<stop offset="0.71" stop-color="#FFFDEE" stop-opacity="0.23"/>
<stop offset="0.9" stop-color="#FFFDEE" stop-opacity="0.06"/>
<stop offset="1" stop-color="#FFFDEE" stop-opacity="0"/>
</linearGradient>
<linearGradient id="paint17_linear_116_243" x1="22.5165" y1="29.1108" x2="59.2839" y2="37.6863" gradientUnits="userSpaceOnUse">
<stop stop-color="#F6FE05" stop-opacity="0"/>
<stop offset="0.06" stop-color="#F6FE05" stop-opacity="0.12"/>
<stop offset="0.23" stop-color="#F6FE05" stop-opacity="0.49"/>
<stop offset="0.37" stop-color="#F6FE05" stop-opacity="0.77"/>
<stop offset="0.47" stop-color="#F6FE05" stop-opacity="0.94"/>
<stop offset="0.53" stop-color="#F6FE05"/>
<stop offset="0.58" stop-color="#F6FE05" stop-opacity="0.88"/>
<stop offset="0.73" stop-color="#F6FE05" stop-opacity="0.51"/>
<stop offset="0.86" stop-color="#F6FE05" stop-opacity="0.23"/>
<stop offset="0.95" stop-color="#F6FE05" stop-opacity="0.06"/>
<stop offset="1" stop-color="#F6FE05" stop-opacity="0"/>
</linearGradient>
<linearGradient id="paint18_linear_116_243" x1="26.0666" y1="18.6161" x2="60.9572" y2="52.5157" gradientUnits="userSpaceOnUse">
<stop stop-color="#FFBB05"/>
<stop offset="0.37" stop-color="#FFAF05"/>
<stop offset="1" stop-color="#FF9F05"/>
</linearGradient>
<linearGradient id="paint19_linear_116_243" x1="22.0591" y1="24.7787" x2="50.7783" y2="52.6911" gradientUnits="userSpaceOnUse">
<stop stop-color="#FFFDEE"/>
<stop offset="0.11" stop-color="#FFFDEE" stop-opacity="0.87"/>
<stop offset="0.44" stop-color="#FFFDEE" stop-opacity="0.5"/>
<stop offset="0.71" stop-color="#FFFDEE" stop-opacity="0.23"/>
<stop offset="0.9" stop-color="#FFFDEE" stop-opacity="0.06"/>
<stop offset="1" stop-color="#FFFDEE" stop-opacity="0"/>
</linearGradient>
<radialGradient id="paint20_radial_116_243" cx="0" cy="0" r="1" gradientUnits="userSpaceOnUse" gradientTransform="translate(43.8834 50.7709) rotate(177.069) scale(15.0246 3.82264)">
<stop stop-color="#FDF2A4"/>
<stop offset="0.01" stop-color="#FAE97E"/>
<stop offset="0.02" stop-color="#F7E25C"/>
<stop offset="0.03" stop-color="#F5DB3F"/>
<stop offset="0.04" stop-color="#F3D627"/>
<stop offset="0.05" stop-color="#F2D215"/>
<stop offset="0.06" stop-color="#F1CF09"/>
<stop offset="0.08" stop-color="#F1CD02"/>
<stop offset="0.11" stop-color="#F1CD00"/>
<stop offset="0.17" stop-color="#CCAE00"/>
<stop offset="0.25" stop-color="#9D8500"/>
<stop offset="0.33" stop-color="#736100"/>
<stop offset="0.42" stop-color="#4F4300"/>
<stop offset="0.51" stop-color="#322A00"/>
<stop offset="0.61" stop-color="#1C1700"/>
<stop offset="0.71" stop-color="#0C0A00"/>
<stop offset="0.83" stop-color="#020200"/>
<stop offset="1"/>
</radialGradient>
<radialGradient id="paint21_radial_116_243" cx="0" cy="0" r="1" gradientUnits="userSpaceOnUse" gradientTransform="translate(40.2859 18.1203) rotate(177.079) scale(15.0202 6.87875)">
<stop stop-color="#FDF2A4"/>
<stop offset="0.01" stop-color="#FAE97E"/>
<stop offset="0.02" stop-color="#F7E25C"/>
<stop offset="0.03" stop-color="#F5DB3F"/>
<stop offset="0.04" stop-color="#F3D627"/>
<stop offset="0.05" stop-color="#F2D215"/>
<stop offset="0.06" stop-color="#F1CF09"/>
<stop offset="0.08" stop-color="#F1CD02"/>
<stop offset="0.11" stop-color="#F1CD00"/>
<stop offset="0.17" stop-color="#CCAE00"/>
<stop offset="0.25" stop-color="#9D8500"/>
<stop offset="0.33" stop-color="#736100"/>
<stop offset="0.42" stop-color="#4F4300"/>
<stop offset="0.51" stop-color="#322A00"/>
<stop offset="0.61" stop-color="#1C1700"/>
<stop offset="0.71" stop-color="#0C0A00"/>
<stop offset="0.83" stop-color="#020200"/>
<stop offset="1"/>
</radialGradient>
</defs>
</svg>
